<svg width="186" height="38" viewBox="0 0 186 38" fill="none" xmlns="http://www.w3.org/2000/svg">
<path d="M29.4889 6.25644L27.1899 8.02036C25.9214 6.36875 24.3953 5.12013 22.6116 4.2745C20.8411 3.41566 18.8922 2.98625 16.7649 2.98625C14.4394 2.98625 12.2857 3.54779 10.3038 4.67089C8.32186 5.78077 6.78256 7.28043 5.68589 9.16988C4.60243 11.0461 4.0607 13.1602 4.0607 15.5121C4.0607 19.0663 5.27629 22.0326 7.70746 24.4109C10.1518 26.7893 13.2304 27.9784 16.9433 27.9784C21.0261 27.9784 24.4416 26.3797 27.1899 23.1821L29.4889 24.9262C28.0355 26.7761 26.2187 28.2097 24.0386 29.227C21.8717 30.2312 19.4471 30.7333 16.7649 30.7333C11.6647 30.7333 7.64139 29.0355 4.69492 25.6397C2.22411 22.7725 0.988704 19.3108 0.988704 15.2544C0.988704 10.9867 2.48176 7.39935 5.46787 4.49251C8.4672 1.57247 12.2197 0.112441 16.7253 0.112441C19.4471 0.112441 21.9047 0.65417 24.098 1.73763C26.2914 2.80787 28.0883 4.31414 29.4889 6.25644ZM56.3837 8.43656V30H53.6487V26.2938C52.4859 27.7076 51.1779 28.7712 49.7244 29.4847C48.2842 30.1982 46.7053 30.5549 44.9876 30.5549C41.9355 30.5549 39.3259 29.4517 37.159 27.2451C35.0053 25.0253 33.9284 22.3299 33.9284 19.1588C33.9284 16.0538 35.0185 13.398 37.1986 11.1915C39.3788 8.9849 42.0015 7.88162 45.0669 7.88162C46.8374 7.88162 48.4362 8.25819 49.8632 9.01132C51.3034 9.76446 52.5652 10.8942 53.6487 12.4004V8.43656H56.3837ZM45.2849 10.5572C43.739 10.5572 42.312 10.9404 41.0039 11.7068C39.6959 12.4599 38.652 13.5235 37.8725 14.8977C37.1061 16.2718 36.723 17.7252 36.723 19.2579C36.723 20.7774 37.1127 22.2308 37.8923 23.6182C38.6719 25.0055 39.7157 26.089 41.0238 26.8685C42.3451 27.6349 43.7588 28.0181 45.2651 28.0181C46.7846 28.0181 48.2248 27.6349 49.5857 26.8685C50.9466 26.1022 51.9905 25.065 52.7172 23.7569C53.4571 22.4488 53.8271 20.9756 53.8271 19.3372C53.8271 16.84 53.0012 14.7523 51.3496 13.0743C49.7112 11.3962 47.6897 10.5572 45.2849 10.5572ZM61.5962 8.43656H64.4304V11.5878C65.276 10.3458 66.1679 9.42092 67.106 8.81313C68.0441 8.19212 69.0219 7.88162 70.0393 7.88162C70.8056 7.88162 71.6248 8.12606 72.4969 8.61494L71.0501 10.9536C70.4687 10.7026 69.9798 10.5771 69.5834 10.5771C68.6585 10.5771 67.7667 10.9602 66.9078 11.7266C66.049 12.4797 65.3949 13.6557 64.9457 15.2544C64.6022 16.4832 64.4304 18.9672 64.4304 22.7065V30H61.5962V8.43656ZM93.0099 22.8452L95.3486 24.074C94.5822 25.5803 93.6969 26.7959 92.6928 27.7208C91.6886 28.6457 90.5589 29.3526 89.3037 29.8414C88.0484 30.3171 86.6281 30.5549 85.0425 30.5549C81.5279 30.5549 78.7796 29.4054 76.7977 27.1064C74.8157 24.7941 73.8248 22.1846 73.8248 19.2777C73.8248 16.5427 74.6638 14.1049 76.3418 11.9644C78.4691 9.24255 81.3165 7.88162 84.884 7.88162C88.5571 7.88162 91.4904 9.27558 93.6837 12.0635C95.2429 14.0322 96.0356 16.4898 96.0621 19.4363H76.6787C76.7316 21.9467 77.531 24.008 79.0769 25.6199C80.6228 27.2187 82.5321 28.0181 84.8047 28.0181C85.9013 28.0181 86.965 27.8265 87.9956 27.4433C89.0394 27.0601 89.9247 26.5514 90.6514 25.9172C91.3781 25.283 92.1643 24.259 93.0099 22.8452ZM93.0099 17.0382C92.6399 15.5583 92.0982 14.3758 91.3847 13.4905C90.6844 12.6052 89.7529 11.8917 88.5902 11.35C87.4274 10.8083 86.2052 10.5374 84.9236 10.5374C82.8095 10.5374 80.9928 11.2179 79.4733 12.5788C78.3634 13.5698 77.5244 15.0562 76.9562 17.0382H93.0099Z" fill="#0AC246"/>
<path d="M101.691 0.845757H107.498C110.827 0.845757 113.074 0.991099 114.236 1.28178C115.901 1.69138 117.262 2.53701 118.319 3.81866C119.376 5.08709 119.905 6.68585 119.905 8.61494C119.905 10.5572 119.389 12.1626 118.359 13.431C117.328 14.6863 115.908 15.5319 114.098 15.9679C112.776 16.285 110.306 16.4436 106.685 16.4436H104.604V30H101.691V0.845757ZM104.604 3.67992V13.5896L109.539 13.649C111.534 13.649 112.994 13.4707 113.919 13.1139C114.844 12.744 115.571 12.156 116.099 11.35C116.628 10.5308 116.892 9.61912 116.892 8.61494C116.892 7.63718 116.628 6.74531 116.099 5.93933C115.571 5.12013 114.871 4.53876 113.999 4.19522C113.14 3.85169 111.726 3.67992 109.757 3.67992H104.604ZM146.76 8.43656V30H144.025V26.2938C142.862 27.7076 141.554 28.7712 140.101 29.4847C138.66 30.1982 137.081 30.5549 135.364 30.5549C132.312 30.5549 129.702 29.4517 127.535 27.2451C125.381 25.0253 124.305 22.3299 124.305 19.1588C124.305 16.0538 125.395 13.398 127.575 11.1915C129.755 8.9849 132.378 7.88162 135.443 7.88162C137.214 7.88162 138.812 8.25819 140.239 9.01132C141.68 9.76446 142.941 10.8942 144.025 12.4004V8.43656H146.76ZM135.661 10.5572C134.115 10.5572 132.688 10.9404 131.38 11.7068C130.072 12.4599 129.028 13.5235 128.249 14.8977C127.482 16.2718 127.099 17.7252 127.099 19.2579C127.099 20.7774 127.489 22.2308 128.268 23.6182C129.048 25.0055 130.092 26.089 131.4 26.8685C132.721 27.6349 134.135 28.0181 135.641 28.0181C137.161 28.0181 138.601 27.6349 139.962 26.8685C141.323 26.1022 142.367 25.065 143.093 23.7569C143.833 22.4488 144.203 20.9756 144.203 19.3372C144.203 16.84 143.377 14.7523 141.726 13.0743C140.087 11.3962 138.066 10.5572 135.661 10.5572ZM150.704 8.43656H153.637L161.05 25.0452L168.244 8.43656H171.197L158.334 37.8881H155.401L159.563 28.3748L150.704 8.43656ZM185.626 10.7951L183.842 12.6383C182.362 11.1981 180.915 10.478 179.501 10.478C178.603 10.478 177.83 10.7752 177.183 11.3698C176.548 11.9644 176.231 12.6581 176.231 13.4509C176.231 14.1511 176.496 14.8184 177.024 15.4526C177.553 16.1 178.662 16.8598 180.354 17.7318C182.415 18.8021 183.815 19.8327 184.555 20.8236C185.282 21.8278 185.645 22.9575 185.645 24.2128C185.645 25.9833 185.024 27.4829 183.782 28.7117C182.54 29.9405 180.988 30.5549 179.125 30.5549C177.883 30.5549 176.694 30.2841 175.557 29.7423C174.434 29.2006 173.503 28.4541 172.763 27.5028L174.507 25.5208C175.921 27.1196 177.42 27.919 179.006 27.919C180.116 27.919 181.061 27.5622 181.84 26.8487C182.62 26.1352 183.009 25.2962 183.009 24.3317C183.009 23.5389 182.752 22.832 182.237 22.211C181.721 21.6032 180.558 20.8369 178.748 19.912C176.806 18.9078 175.485 17.9168 174.784 16.9391C174.084 15.9613 173.734 14.8448 173.734 13.5896C173.734 11.9512 174.289 10.5903 175.399 9.50681C176.522 8.42335 177.936 7.88162 179.64 7.88162C181.622 7.88162 183.617 8.85277 185.626 10.7951Z" fill="#458FF6"/>
</svg>
