<svg width="56" height="52" viewBox="0 0 56 52" fill="none" xmlns="http://www.w3.org/2000/svg">
<path d="M55.9245 0.262695H21.2561V32.0137H55.9245V0.262695Z" fill="#0AC246"/>
<path d="M30.4032 24.4441H1.68066V51.4821H30.4032V24.4441Z" fill="#1F549F"/>
<path d="M16.042 0H0.857422V14.6137H16.042V0Z" fill="#458FF6"/>
<path d="M55.9243 42.4695H46.3196V51.3151H55.9243V42.4695Z" fill="#458FF6"/>
<path d="M26.653 0.351562C26.653 0.351562 27.9336 3.8687 30.9522 4.74799L36.0747 6.24277C37.1724 6.59448 39.6422 6.77034 39.7336 8.26512C39.7242 8.68102 39.6628 9.09433 39.5507 9.49613C39.1839 10.6139 38.7251 11.7018 38.1786 12.7495C38.0977 12.9232 38.072 13.1159 38.1045 13.3036C38.137 13.4913 38.2265 13.6655 38.3615 13.8046L39.0018 14.2443L35.4344 17.7614C35.4344 17.7614 32.2328 16.9701 32.9646 14.7718C32.9646 14.7718 30.0375 14.3322 30.9522 12.4857C30.9522 12.4857 28.391 12.0461 29.3972 9.84784C29.3972 9.84784 26.653 8.96856 28.4824 7.20999C28.4824 7.20999 25.2809 5.53935 26.7445 4.83592C26.7445 4.83592 24.915 2.54977 26.653 0.351562Z" fill="white"/>
<path d="M55.3755 28.0491C55.3755 28.0491 51.6251 26.7302 50.8018 23.8286C49.9785 20.9269 49.7041 20.5752 49.2468 18.9046C48.7894 17.2339 48.7894 15.4754 47.2343 15.3875L45.8622 15.5633C44.7342 15.9294 43.6339 16.3701 42.5692 16.8822C42.3683 16.9696 42.1431 16.9911 41.9283 16.9434C41.7134 16.8958 41.5208 16.7816 41.38 16.6184L41.0142 16.0909L37.3552 19.4322C37.3552 19.4322 38.087 22.5976 40.3738 21.8942C40.3738 21.8942 40.9227 24.7079 42.7521 23.8286C42.7521 23.8286 43.301 26.2906 45.5878 25.3234C45.5878 25.3234 46.4111 27.9612 48.2405 26.2027C48.2405 26.2027 49.9785 29.2801 50.7103 27.8733C50.7103 27.8733 53.1801 29.6319 55.3755 28.0491Z" fill="white"/>
<path d="M42.5693 11.3427C42.7522 10.991 42.7522 10.5513 42.9352 10.1117C43.0727 9.82828 43.2671 9.57379 43.5073 9.36282C43.7474 9.15185 44.0286 8.98856 44.3345 8.88235C44.6405 8.77613 44.9654 8.72907 45.2903 8.74387C45.6153 8.75868 45.934 8.83506 46.2282 8.96862C47.2344 9.58412 47.1429 11.2548 46.1367 12.0461C45.4604 12.3917 44.757 12.6857 44.0328 12.9254C43.5197 13.1675 43.0552 13.495 42.6607 13.8926L6.71178 47.6571C6.39968 48.0012 6.0635 48.3244 5.70557 48.6244C5.43115 48.8002 4.88231 49.064 4.97379 48.5364C5.06526 48.0089 5.15673 48.1847 5.43115 47.833L6.98619 46.3382L41.8375 12.134C42.1474 11.9343 42.3993 11.662 42.5693 11.3427Z" fill="white"/>
<path d="M31.135 17.8494C30.5444 17.1749 29.8316 16.6089 29.0311 16.1787C28.2993 15.6511 26.7443 14.6839 25.7381 15.0356C24.7319 15.3874 24.2745 17.4097 24.4574 18.6407C24.911 21.2608 26.1878 23.6848 28.1164 25.5871C28.7071 26.1316 29.1745 26.7876 29.4893 27.5138C29.8041 28.2401 29.9595 29.021 29.9458 29.8076C29.9078 30.2705 29.7051 30.7067 29.372 31.043C29.0388 31.3792 28.5955 31.595 28.1164 31.6541C27.678 31.8127 27.2007 31.8433 26.7443 31.7421L25.8295 31.5662C25.5492 31.3969 25.2393 31.2777 24.9148 31.2145H24.6404L25.0063 32.8851C25.0978 33.1489 26.7443 33.1489 27.0187 33.1489C27.2931 33.1489 30.3117 33.061 31.4094 31.9179C31.8266 31.3676 32.1021 30.73 32.2135 30.0575C32.3248 29.385 32.2686 28.6967 32.0497 28.0491C31.5009 26.2026 30.0373 24.7957 28.7567 23.4768C28.7567 23.4768 24.9148 19.6959 25.7381 16.7063C25.7381 16.7063 26.2869 15.5632 27.4761 16.5304C28.1977 17.1804 28.7333 17.998 29.0311 18.9045C29.0369 19.2417 29.1435 19.5702 29.3381 19.8508C29.5327 20.1314 29.8072 20.3524 30.1288 20.4872C30.1288 20.4872 31.4094 21.1906 31.5923 19.9596C31.7224 19.3985 31.6582 18.8118 31.4094 18.289L31.135 17.8494Z" fill="white"/>
<path d="M31.8667 26.3784C32.2294 27.0631 32.4471 27.8103 32.507 28.5766C32.5985 29.0162 32.5985 29.28 33.1473 29.3679L34.6109 29.8955C35.6499 30.1852 36.7323 30.3041 37.8125 30.2472C38.2937 30.1815 38.7586 30.0325 39.1846 29.8076C39.4137 29.7148 39.6163 29.5705 39.7755 29.387C39.9346 29.2034 40.0457 28.9858 40.0993 28.7524C40.2127 28.4169 40.247 28.0613 40.1995 27.7115C40.152 27.3616 40.024 27.0264 39.8249 26.7301C39.1721 25.589 38.3034 24.5751 37.2636 23.7405C36.9207 23.4516 36.5141 23.2412 36.0745 23.125C35.4955 23.1338 34.9286 23.2851 34.4279 23.5646C34.3365 23.6526 34.245 23.6526 34.245 23.7405C34.245 23.8284 34.1535 23.9164 34.245 23.9164C34.3147 24.3652 34.5038 24.7892 34.7938 25.1473C35.3014 25.5203 35.8996 25.7624 36.5318 25.8508C37.2118 26.1163 37.8328 26.5043 38.3613 26.9938C38.5533 27.1574 38.703 27.3618 38.7983 27.5908C38.8936 27.8198 38.9319 28.067 38.9101 28.3128C38.836 28.4815 38.7236 28.6322 38.5812 28.7539C38.4388 28.8756 38.2699 28.9652 38.0869 29.0162H36.9892C35.049 28.6403 33.2671 27.7228 31.8667 26.3784Z" fill="white"/>
<path d="M25.1894 22.7734C25.599 23.5453 26.1228 24.2561 26.7445 24.8837C26.3786 24.5319 25.1894 24.6199 24.8235 24.7078C22.6282 24.9716 22.7197 27.5215 23.177 29.0163C23.6344 30.5111 24.915 32.7093 24.3662 34.6437C24.2839 35.1058 24.0611 35.5342 23.7259 35.8747C23.7259 35.8747 22.5367 38.3367 18.4204 37.985V37.3695L19.0607 36.754C19.2437 36.5781 20.1584 36.754 20.4328 36.6661C20.8777 36.5846 21.2978 36.4079 21.662 36.1492C22.0262 35.8904 22.3251 35.5562 22.5367 35.1713C22.7469 34.6809 22.8474 34.1534 22.8316 33.6232C22.8158 33.093 22.6842 32.5719 22.4452 32.0938C21.7312 30.5341 21.2981 28.869 21.1646 27.1698C20.9817 24.9716 22.4452 22.2458 25.1894 22.7734Z" fill="white"/>
<path d="M21.1643 30.2473L21.5302 31.3025L21.1643 31.7421C21.1643 31.7421 18.1457 31.0387 17.5054 34.38C17.048 36.4023 18.4201 38.4247 17.5054 40.447C16.5906 42.4694 15.0356 42.5573 13.2976 42.4694V42.2056L14.1209 41.3263C14.2123 41.3263 14.6697 41.3263 14.6697 41.2384C16.8651 40.7987 16.5906 38.3368 16.4077 36.6661C16.0035 35.2248 16.1664 33.6908 16.8651 32.3576C17.6883 30.9508 19.5178 29.8077 21.1643 30.2473Z" fill="white"/>
<path d="M15.7676 36.4901C15.7676 36.3143 14.3041 36.5781 14.1211 36.5781C13.3032 36.8177 12.6143 37.3538 12.2002 38.0729C11.7337 38.9381 11.5732 39.9258 11.7428 40.8866C11.9258 43.2606 10.3707 45.283 8.54126 46.6898L9.09009 46.514C9.55774 46.399 9.9944 46.1891 10.3707 45.8985C11.1334 45.4418 11.7629 44.8065 12.2002 44.052C12.3924 43.6868 12.5456 43.3038 12.6576 42.9089C12.7034 42.4704 12.7034 42.0285 12.6576 41.59C12.6424 41.0317 12.673 40.4731 12.749 39.9193C12.8405 39.3038 13.1149 38.4246 13.7552 38.1608C14.1495 37.9533 14.5871 37.8332 15.0359 37.8091L15.7676 37.0177V36.4901Z" fill="white"/>
<path d="M11.1024 41.4143C11.1024 41.4143 6.71169 42.1177 6.80317 48.1848C7.3087 45.5874 8.85187 43.2835 11.1024 41.766V41.4143Z" fill="white"/>
</svg>
